<?xml version="1.0" encoding="utf-8" ?>
<svg xmlns="http://www.w3.org/2000/svg" xmlns:xlink="http://www.w3.org/1999/xlink" width="1024" height="1024">
	<path fill="#FECD12" d="M-0 -0L1024 0L1024 1024L-0 1024L0 -0Z"/>
	<path fill="#08090A" d="M238.036 706.682L237.559 707.107C232.885 710.446 226.02 713.054 220.728 715.378C216.34 717.305 211.487 719.887 206.741 720.771C202.585 721.544 197.799 721.068 193.655 720.363C203.454 710.25 212.27 700.06 220.508 688.644L238.036 706.682Z"/>
	<path fill="#08090A" d="M802.808 690.133C809.424 696.723 816.321 703.205 822.5 710.206C825.67 713.798 829.069 717.701 831.147 722.058C827.318 722.747 824.314 723.121 820.429 722.414C810.433 720.595 799.145 714.277 790.258 709.425C788.511 708.472 785.857 707.4 784.385 706.142L783.948 705.604L784.108 705.505C790.873 701.576 797.114 695.507 802.808 690.133Z"/>
	<path fill="#08090A" d="M427.929 174.901C425.562 169.708 422.435 164.662 419.502 159.768C406.598 138.234 390.496 121.016 369.571 107.089C368.03 107.991 366.837 109.334 365.28 110.227C360.854 112.766 355.039 114.008 350.064 112.561C345.114 111.12 340.641 107.854 338.211 103.25C335.996 99.0547 335.161 93.3367 336.639 88.7506L336.898 88C338.497 83.2739 341.662 78.7649 346.25 76.5094C351.131 74.11 356.882 73.7729 362 75.5633C368.98 78.0052 373.878 84.5368 375.007 91.75C375.139 92.5965 375.006 95.5347 375.327 96.0873C375.754 96.8201 380.125 99.0491 381.072 99.6822C385.456 102.613 389.773 105.769 393.783 109.198C413.427 125.996 427.437 145.903 438.793 169.018C445.689 184.521 451.74 199.922 454.726 216.728L442.634 221.223C442.543 217.58 441.481 213.885 440.669 210.343C437.887 198.209 433.266 186.138 427.929 174.901Z"/>
	<path fill="#08090A" d="M584.892 168.29C594.703 148.231 606.886 130.465 623.347 115.214C629.483 109.529 636.001 104.464 642.695 99.4687C643.369 98.9661 647.226 96.4902 647.393 96.0494C647.825 94.9085 647.338 91.9383 647.487 90.5298C648.193 83.8675 653.597 77.3846 659.796 75.1774C665.239 73.2395 671.695 73.4286 676.861 76.0428C681.767 78.5251 685.599 83.1932 687.105 88.5C688.631 93.8801 687.819 99.1933 685.048 104.003C682.561 108.322 677.633 112.219 672.769 113.271C665.532 114.835 660.337 112.746 654.435 108.706L653.338 107.938C629.151 124.608 609.171 146.316 596.202 172.847C590.72 183.862 586.29 195.011 583 206.872C581.703 211.548 580.239 216.4 579.652 221.224L567.946 216.816C571.52 199.921 576.861 183.622 584.892 168.29Z"/>
	<path fill="#E93655" d="M427.929 174.901C433.266 186.138 437.887 198.209 440.669 210.343C441.481 213.885 442.543 217.58 442.634 221.223C429.687 227.695 418.112 234.706 406.97 243.962C401.14 248.806 395.41 254.097 391.038 260.324L390.58 260.966L390.313 261.357C376.328 260.276 363.94 259.482 350.048 262.399L351.125 258.694C363.993 222.122 393.196 191.471 427.929 174.901Z"/>
	<path fill="#B52448" d="M596.202 172.847C604.626 177.903 613.064 182.829 620.932 188.75C638.073 201.649 653.341 220.123 663.331 239.07C667.141 246.297 670.023 253.848 672.952 261.457C659.146 257.829 646.283 258.933 632.316 260.765C628.87 255.826 624.459 251.589 620.075 247.486C608.051 236.233 594.797 227.717 579.652 221.224C580.239 216.4 581.703 211.548 583 206.872C586.29 195.011 590.72 183.862 596.202 172.847Z"/>
	<path fill="#08090A" d="M398.401 827.561L399.012 826.757C416.004 833.691 432.39 841.455 450.806 844.201L418.208 950.142L359.397 950.066L362.215 946.571C373.234 933.813 387.909 930.276 403.918 929.006L398.401 827.561Z"/>
	<path fill="#08090A" d="M569.913 843.708C589.625 839.69 608.624 832.188 625.989 822.11L622.775 929.776C639.652 930.445 656.552 935.403 668.333 948.247L670.27 950.409L608.276 950.393L569.913 843.708Z"/>
	<path fill="#F26907" d="M688.398 753.106C686.348 758.353 683.383 763.326 680.504 768.161C671.555 783.189 659.978 797.045 646.232 807.908L634.343 816.62C631.579 818.449 628.588 820.052 625.989 822.11C608.624 832.188 589.625 839.69 569.913 843.708C540.533 850.755 509.95 851.646 479.973 848.663C473.897 848.058 467.235 847.694 461.375 845.997L480.955 841.608C500.76 836.276 520.504 826.833 536.16 813.484C591.642 808.726 645.444 788.804 688.398 753.106Z"/>
	<path fill="#E93655" d="M438.793 169.018L446.287 165.776C490.034 148.274 541.837 149.643 584.892 168.29C576.861 183.622 571.52 199.921 567.946 216.816C540.996 208.016 512.392 204.286 484.242 209.303C474.178 211.097 464.589 214.203 454.726 216.728C451.74 199.922 445.689 184.521 438.793 169.018Z"/>
	<path fill="#FDAE04" d="M454.726 216.728C464.589 214.203 474.178 211.097 484.242 209.303C512.392 204.286 540.996 208.016 567.946 216.816L579.652 221.224C594.797 227.717 608.051 236.233 620.075 247.486C624.459 251.589 628.87 255.826 632.316 260.765L625.145 261.932C597.113 267.214 569.191 272.06 540.695 274.018C511.879 275.998 482.478 274.746 453.797 271.365L390.313 261.357L390.58 260.966L391.038 260.324C395.41 254.097 401.14 248.806 406.97 243.962C418.112 234.706 429.687 227.695 442.634 221.223L454.726 216.728Z"/>
	<path fill="#FEEC63" d="M670.797 502.062L701.007 472.683C720.052 456.208 740.741 441.712 762.551 429.153C788.666 414.115 816.52 400.107 847.505 402.567C864.354 403.905 880.379 410.454 891.408 423.574C897.073 430.314 899.968 438.248 901.189 446.91C903.635 464.275 897.166 482.892 886.63 496.61C877.523 508.468 864.982 517.324 851.844 524.194C822.846 539.359 789.889 546.095 757.596 549.859C734.862 552.508 712.041 553.195 689.194 551.851L667.231 549.829C661.678 546.19 656.189 542.146 650.139 539.385L650.512 539.149C652.674 537.231 654.634 534.515 656.446 532.269C663.95 522.969 668.415 513.73 670.797 502.062Z"/>
	<path fill="#FEEC63" d="M339.114 561.407C329.702 561.641 320.074 560.148 310.75 558.958C280.654 555.116 250.606 549.359 221.455 540.903C187.807 531.143 149.038 514.951 131.572 482.492C124.535 469.415 120.756 451.683 125.153 437.249C127.448 429.715 130.848 423.331 136.533 417.799C148.372 406.281 165.814 401.785 182 402.07C217.395 402.693 252.094 419.77 281 439.016C289.36 444.582 297.702 450.29 305.546 456.571C314.586 463.809 323.196 471.938 331.55 479.963C339.482 487.583 346.336 496.226 353.969 504.115C355.574 517.663 361.632 529.173 370.027 539.792C370.46 540.34 370.329 540.1 370.492 540.759L339.114 561.407Z"/>
	<path fill="#08090A" d="M591.936 738.858C620.867 728.917 648.336 717.55 673.078 699.175C683.264 691.61 692.209 683.26 701.169 674.302C703.092 692.007 700.636 711.024 696.411 728.211C694.31 736.757 691.913 745.019 688.398 753.106C645.444 788.804 591.642 808.726 536.16 813.484C520.504 826.833 500.76 836.276 480.955 841.608L461.375 845.997C458.121 846.126 454.024 844.846 450.806 844.201C432.39 841.455 416.004 833.691 399.012 826.757L398.401 827.561C397.375 825.023 394.825 824.279 392.5 822.909C370.407 809.89 352.053 790.509 339.322 768.335C336.335 763.131 333.164 757.889 331.658 752.034C320.58 729.148 319.297 702.326 319.506 677.38C330.183 687.359 341.342 696.924 353.496 705.081C403.141 738.402 464.012 751.884 523.207 749.914C546.032 749.154 570.145 745.659 591.936 738.858Z"/>
	<path fill="#FDAE04" d="M331.658 752.034C346.952 764.443 362.948 775.959 380.359 785.242C411.291 801.734 446.922 811.208 481.849 813.635C500.103 814.903 517.916 814.355 536.16 813.484C520.504 826.833 500.76 836.276 480.955 841.608L461.375 845.997C458.121 846.126 454.024 844.846 450.806 844.201C432.39 841.455 416.004 833.691 399.012 826.757L398.401 827.561C397.375 825.023 394.825 824.279 392.5 822.909C370.407 809.89 352.053 790.509 339.322 768.335C336.335 763.131 333.164 757.889 331.658 752.034Z"/>
	<path fill="#08090A" d="M650.139 539.385C656.189 542.146 661.678 546.19 667.231 549.829C704.751 577.781 738.158 612.095 768.299 647.76L782.518 665.204C788.328 672.799 793.754 680.453 800.288 687.477L802.808 690.133C797.114 695.507 790.873 701.576 784.108 705.505L781.967 704.712C779.964 704.679 775.965 702.151 774.047 701.2C756.804 692.653 739.926 682.668 723.533 672.579C715.789 667.813 708.213 662.317 700.206 658.041C699.866 663.356 700.738 668.989 701.169 674.302C692.209 683.26 683.264 691.61 673.078 699.175C648.336 717.55 620.867 728.917 591.936 738.858C570.145 745.659 546.032 749.154 523.207 749.914C464.012 751.884 403.141 738.402 353.496 705.081C341.342 696.924 330.183 687.359 319.506 677.38C320.285 673.391 322.661 656.816 321.384 654.085L269.004 689.088L245.852 702.7C244.682 703.381 240.828 705.047 240.119 706.082L238.036 706.682L220.508 688.644L223.067 685.799C227.036 681.316 230.516 676.175 234.099 671.374L252.87 647.026C269.158 626.92 286.801 607.37 305.719 589.698L339.114 561.407L370.492 540.759C372.455 542.291 374.127 544.435 375.718 546.349C378.549 549.072 396.451 567.402 398.433 567.631C402.916 572.54 408.357 576.777 413.463 581.019L448.405 607.393C451.077 609.237 456.48 611.985 457.942 614.686L458.474 614.875L510.339 639.755L534.77 628.215L550.792 619.18C553.238 617.737 556.161 615.332 558.863 614.62C576.269 611.257 593.554 606.228 609.543 598.513L607.732 586.579C607.458 584.208 607.813 581.775 606.898 579.532L647.033 543.072C647.989 541.654 648.84 540.504 650.139 539.385Z"/>
	<path fill="#FCF8F6" d="M800.288 687.477L802.808 690.133C797.114 695.507 790.873 701.576 784.108 705.505L781.967 704.712C783.7 702.271 786.204 700.24 788.385 698.192L800.288 687.477Z"/>
	<path fill="#FCF8F6" d="M223.067 685.799C229.509 691.122 236.384 698.545 240.119 706.082L238.036 706.682L220.508 688.644L223.067 685.799Z"/>
	<path fill="#F26907" d="M606.898 579.532L647.033 543.072C651.348 549.41 657.505 556.381 660.468 563.389C645.113 577.722 628.245 589.01 609.543 598.513L607.732 586.579C607.458 584.208 607.813 581.775 606.898 579.532Z"/>
	<path fill="#FDAE04" d="M375.718 546.349C378.549 549.072 396.451 567.402 398.433 567.631C402.916 572.54 408.357 576.777 413.463 581.019L448.405 607.393C451.077 609.237 456.48 611.985 457.942 614.686C434.411 610.441 409.564 600.873 389.403 587.893C379.071 581.241 369.959 573.639 360.975 565.32C361.73 563.297 363.622 561.293 364.944 559.582L375.718 546.349Z"/>
	<path fill="#F26907" d="M613.396 666.853C642.34 656.757 668.893 640.562 690.682 619.077C693.546 625.458 695.285 633.01 696.685 639.854L698.91 652.956C699.154 654.706 699.014 656.719 700.206 658.041C699.866 663.356 700.738 668.989 701.169 674.302C692.209 683.26 683.264 691.61 673.078 699.175C648.336 717.55 620.867 728.917 591.936 738.858L603.351 706.832C606.415 697.03 608.613 687.058 610.534 676.98C611.033 674.363 612.536 670.162 611.612 667.652L613.396 666.853Z"/>
	<path fill="#FDAE04" d="M331.983 616.853C341.506 625.899 350.927 634.333 361.75 641.802C406.924 672.976 464.516 687.389 519 685.927C550.712 685.075 581.816 678.352 611.612 667.652C612.536 670.162 611.033 674.363 610.534 676.98C608.613 687.058 606.415 697.03 603.351 706.832L591.936 738.858C570.145 745.659 546.032 749.154 523.207 749.914C464.012 751.884 403.141 738.402 353.496 705.081C341.342 696.924 330.183 687.359 319.506 677.38C320.285 673.391 322.661 656.816 321.384 654.085L322.19 653.122C323.576 641.063 327.739 628.198 331.983 616.853Z"/>
	<path fill="#08090A" d="M632.316 260.765C646.283 258.933 659.146 257.829 672.952 261.457C678.288 263.502 683.603 265.564 688.512 268.529C700.307 275.655 709.594 286.822 715.179 299.376C725.66 322.937 725.144 349.265 715.779 373.1C711.971 382.792 706.557 391.722 700.091 399.862C700.067 404.646 697.615 408.636 695.521 412.819C685.641 432.562 671.654 449.539 656.037 465.012L644.512 475.132C649.328 475.682 653.948 476.61 658.052 479.372C664.702 484.079 668.938 490.403 670.334 498.48L670.797 502.062C668.415 513.73 663.95 522.969 656.446 532.269C654.634 534.515 652.674 537.231 650.512 539.149L650.139 539.385C648.84 540.504 647.989 541.654 647.033 543.072L606.898 579.532C607.813 581.775 607.458 584.208 607.732 586.579L609.543 598.513C593.554 606.228 576.269 611.257 558.863 614.62C556.161 615.332 553.238 617.737 550.792 619.18L534.77 628.215L510.339 639.755L458.474 614.875L457.942 614.686C456.48 611.985 451.077 609.237 448.405 607.393L413.463 581.019C408.357 576.777 402.916 572.54 398.433 567.631C396.451 567.402 378.549 549.072 375.718 546.349C374.127 544.435 372.455 542.291 370.492 540.759C370.329 540.1 370.46 540.34 370.027 539.792C361.632 529.173 355.574 517.663 353.969 504.115C354.06 495.206 355.844 486.889 360.58 479.269C362.837 474.647 367.434 470.522 370.933 466.784C348.181 449.896 332.706 427.606 324.662 400.469C322.657 397.209 319.657 394.14 317.385 390.993C311.622 383.01 307.139 373.803 304.151 364.432C296.997 341.999 297.525 317.238 308.547 296.172C314.752 284.311 324.631 273.535 336.661 267.405C340.903 265.244 345.516 263.807 350.048 262.399C363.94 259.482 376.328 260.276 390.313 261.357L453.797 271.365C482.478 274.746 511.879 275.998 540.695 274.018C569.191 272.06 597.113 267.214 625.145 261.932L632.316 260.765Z"/>
	<path fill="#33A17E" d="M642.11 286.952C656.756 288.541 671.382 292.88 680.972 304.722C689.569 315.337 693.367 330.044 691.763 343.519C689.638 361.381 679.131 376.893 665.044 387.707C657.827 393.247 649.244 397.169 640.521 399.695C630.682 402.432 620.586 402.86 610.583 400.639C613.293 398.688 615.657 396.157 618.028 393.815C629.066 382.913 637.524 369.271 643.639 355.064C650.653 338.765 652.704 321.648 648.285 304.375C646.736 298.322 644.399 292.738 642.11 286.952Z"/>
	<path fill="#65C29D" d="M610.583 400.639C594.585 396.089 581.41 388.798 569.836 376.728C556.616 362.942 543.149 340.154 543.788 320.302C543.938 315.619 545.608 312.225 549.043 309.075C552.231 306.151 556.691 304.18 560.563 302.341C584.98 290.746 615.253 285.876 642.11 286.952C644.399 292.738 646.736 298.322 648.285 304.375C652.704 321.648 650.653 338.765 643.639 355.064C637.524 369.271 629.066 382.913 618.028 393.815C615.657 396.157 613.293 398.688 610.583 400.639Z"/>
	<path fill="#08090A" d="M628.954 309.75L630.57 309.75C631.52 310.634 632.069 310.81 632.065 312.192C632.053 317.441 624.5 324.739 621.121 328.112C623.165 330.3 624.692 332.731 626.294 335.246C631.174 333.929 636.122 327.936 639.025 324.087C640.486 323.992 640.483 323.979 641.674 324.827C641.982 325.862 642.101 326.122 641.651 327.166C639.233 332.766 633.022 336.925 627.688 339.315L629.091 344.694C630.4 351.41 627.926 358.892 624.168 364.422C618.981 372.056 611.445 375.736 602.62 377.412C596.047 377.68 590.479 376.514 584.755 373.198C578.043 369.31 573.877 362.48 572.065 355.107C570.306 347.949 571.679 339.665 575.486 333.406C579.854 326.224 586.677 321.932 594.794 320.052C603.162 318.114 610.57 320.141 617.675 324.601C620.475 322.184 623.012 319.514 625.024 316.399C626.443 314.203 627.36 311.856 628.954 309.75Z"/>
	<path fill="#FCF8F6" d="M585.506 327.534C587.185 327.461 589.011 327.314 590.641 327.809C593.225 328.594 595.505 330.786 596.573 333.241C597.607 335.618 597.764 338.02 596.654 340.409C595.366 343.178 593.254 344.463 590.508 345.53C588.818 345.781 586.925 345.806 585.25 345.461C583.011 345 581.07 343.208 579.913 341.307C578.567 339.095 578.345 336.725 579.049 334.25C580.009 330.872 582.554 329.098 585.506 327.534Z"/>
	<path fill="#65C29D" d="M383.245 286.204C388.875 285.551 395.177 285.882 400.844 286.22C417.605 287.217 435.274 290.915 450.955 296.93C459.878 300.352 475.273 305.357 479.194 314.808C482.558 322.913 478.533 335.513 475.478 343.312C466.137 367.16 446.553 387.547 423.125 397.73C417.264 400.083 411.21 401.756 404.921 402.441C387.043 404.388 368.611 399.166 354.596 387.783C341.198 376.9 332.6 360.736 331.105 343.538C329.888 329.55 333.87 314.939 343.113 304.22C353.77 291.862 367.412 287.452 383.245 286.204Z"/>
	<path fill="#08090A" d="M393.459 309.75C395.506 310.413 396.357 312.727 397.602 314.465C398.741 316.057 405.612 323.912 407.261 323.874C407.709 323.863 409.789 322.585 410.327 322.327C415.97 319.614 422.259 318.196 428.493 319.367C436.44 320.859 443.614 325.702 448.048 332.407C452.303 338.843 453.973 347.06 452.265 354.598C450.516 362.315 445.642 369.216 438.865 373.337C431.496 377.818 423.678 378.654 415.407 376.657C408.207 374.069 402.755 370.56 398.647 363.922C393.905 356.261 393.137 347.52 395.174 338.835L395.344 338.126C393.499 337.184 391.607 336.237 389.955 334.979C385.393 331.504 379.902 325.376 379.052 319.5C379.839 318.253 380.126 318.23 381.5 317.629C383.038 318.374 384.145 320.859 385.077 322.316C386.355 324.313 387.76 326.091 389.411 327.787C391.72 330.161 394.305 331.853 397.119 333.562C398.887 331.319 401.007 329.675 403.23 327.912L402.143 327.063C397.442 323.318 391.705 318.029 391.002 311.75C391.753 310.494 392.129 310.419 393.459 309.75Z"/>
	<path fill="#FCF8F6" d="M407.058 330.522C408.994 330.486 411.415 330.707 413.14 331.618C414.844 332.518 416.09 334.059 416.643 335.896C417.422 338.482 417.206 341.506 415.688 343.794C414.534 345.534 412.291 346.028 410.396 346.518C409.028 346.513 407.572 346.369 406.25 346.001C404.098 345.402 402.137 343.879 401.141 341.858C400.35 340.251 400.289 338.178 400.861 336.5C401.932 333.353 404.184 331.9 407.058 330.522Z"/>
	<defs>
		<linearGradient id="gradient_0" gradientUnits="userSpaceOnUse" x1="539.03271" y1="510.80783" x2="486.98654" y2="358.88394">
			<stop offset="0" stop-color="#FC9A04"/>
			<stop offset="1" stop-color="#FFC701"/>
		</linearGradient>
	</defs>
	<path fill="url(#gradient_0)" d="M359.496 425.716C367.847 429.09 376.172 431.95 385.092 433.371C400.788 435.872 418.724 433.415 433.374 427.213C459.822 416.017 478.767 397.649 493.276 373.139C496.93 366.967 499.567 359.037 504.485 353.803C507.49 350.605 511.687 349.365 515.843 351.045C522.792 353.855 525.453 362.75 528.731 368.933L535.692 380.727C551.649 404.927 576.249 425.074 605.003 431.401C611.059 432.734 617.104 433.434 623.295 433.621C625.008 433.673 627.438 434.028 629.052 433.641C640.614 433.525 651.765 431.04 662.611 427.159C661.875 430.826 657.807 434.941 655.414 437.872C645.932 449.48 635.485 461.022 624.441 471.139C620.438 474.806 616.05 478.18 611.63 481.327C604.113 486.681 595.834 490.813 587.437 494.59C552.71 510.208 513.978 514.452 476.562 508.038C431.853 500.373 393.598 476.969 367.508 439.75C365.958 437.538 359.071 428.077 359.496 425.716Z"/>
	<path fill="#08090A" d="M473.049 435.051C475.947 436.646 478.543 438.641 481.383 440.316C488.144 444.306 496.105 447.864 503.837 449.381C522.064 452.956 538.187 445.314 552.855 435.408C551.85 437.118 550.331 438.635 549.044 440.149L546.084 443.024C536.266 452.02 523.334 458.687 509.668 457.95C494.277 457.118 482.675 445.84 473.049 435.051Z"/>
	<path fill="#08090A" d="M508.554 394.201C511.806 393.982 515.009 394.161 518.25 394.474C522.767 394.909 528.24 395.975 531.25 399.608C531.498 401.137 531.579 401.771 530.61 403.059C527.068 407.766 520.831 409.974 515.256 410.882C509.404 411.528 503.913 410.905 498.885 407.603C496.816 406.243 492.96 403.305 492.586 400.819C492.409 399.635 492.56 399.269 493.349 398.379C495.973 395.421 504.657 394.591 508.554 394.201Z"/>
	<path fill="#B52448" d="M700.091 399.862C700.067 404.646 697.615 408.636 695.521 412.819C685.641 432.562 671.654 449.539 656.037 465.012L644.512 475.132C649.328 475.682 653.948 476.61 658.052 479.372C664.702 484.079 668.938 490.403 670.334 498.48L670.797 502.062C668.415 513.73 663.95 522.969 656.446 532.269C654.634 534.515 652.674 537.231 650.512 539.149L650.139 539.385C648.84 540.504 647.989 541.654 647.033 543.072L606.898 579.532C607.813 581.775 607.458 584.208 607.732 586.579L609.543 598.513C593.554 606.228 576.269 611.257 558.863 614.62C556.161 615.332 553.238 617.737 550.792 619.18L534.77 628.215L510.339 639.755L458.474 614.875L457.942 614.686C456.48 611.985 451.077 609.237 448.405 607.393L413.463 581.019C408.357 576.777 402.916 572.54 398.433 567.631C396.451 567.402 378.549 549.072 375.718 546.349C374.127 544.435 372.455 542.291 370.492 540.759C370.329 540.1 370.46 540.34 370.027 539.792C361.632 529.173 355.574 517.663 353.969 504.115C354.06 495.206 355.844 486.889 360.58 479.269C362.837 474.647 367.434 470.522 370.933 466.784C348.181 449.896 332.706 427.606 324.662 400.469C335.776 410.585 345.44 419.718 359.496 425.716C359.071 428.077 365.958 437.538 367.508 439.75C393.598 476.969 431.853 500.373 476.562 508.038C513.978 514.452 552.71 510.208 587.437 494.59C595.834 490.813 604.113 486.681 611.63 481.327C616.05 478.18 620.438 474.806 624.441 471.139C635.485 461.022 645.932 449.48 655.414 437.872C657.807 434.941 661.875 430.826 662.611 427.159C677.569 420.705 689.372 412.07 700.091 399.862Z"/>
	<path fill="#FDAE04" d="M606.898 579.532C607.813 581.775 607.458 584.208 607.732 586.579L609.543 598.513C593.554 606.228 576.269 611.257 558.863 614.62C560.929 612.328 563.978 610.713 566.586 609.109L579.996 600.558L606.898 579.532Z"/>
	<path fill="#E93655" d="M360.58 479.269C387.91 506.093 423.396 525.145 460.75 533.512C478.116 537.401 496.097 538.813 513.865 538.664C548.916 538.37 585.71 530.912 617.374 515.634C628.037 510.489 638.731 504.26 647.041 495.696C651.286 491.321 654.721 486.277 657.888 481.089C658.252 483.99 656.783 486.171 655.43 488.637C651.702 495.432 647.162 502.118 642.413 508.234C612.807 546.359 565.362 573.07 519.3 585.702C509.709 588.332 499.886 590.788 490 591.987C479.052 593.314 467.377 593.544 456.508 591.52C446.518 589.659 436.557 585.72 427.173 581.904C420.124 579.038 412.884 576.145 406.469 572.01C404.306 570.615 400.888 568.212 398.433 567.631C396.451 567.402 378.549 549.072 375.718 546.349C374.127 544.435 372.455 542.291 370.492 540.759C370.329 540.1 370.46 540.34 370.027 539.792C361.632 529.173 355.574 517.663 353.969 504.115C354.06 495.206 355.844 486.889 360.58 479.269Z"/>
</svg>
