<?xml version="1.0" encoding="utf-8" ?>
<svg xmlns="http://www.w3.org/2000/svg" xmlns:xlink="http://www.w3.org/1999/xlink" width="1024" height="1024">
	<path fill="#20AD14" d="M-0 -0L1024 0L1024 1024L-0 1024L0 -0Z"/>
	<path fill="#F69B07" d="M434.831 88.6867L468.865 128.001L459.265 132.771L428.544 93.9531L434.831 88.6867Z"/>
	<path fill="#F69B07" d="M589.467 88.6702C591.619 90.6049 593.698 92.586 596.188 94.0856L566.132 133.044L556.806 128.156C559.742 123.384 564.024 118.919 567.598 114.582L589.467 88.6702Z"/>
	<path fill="#F1EC05" d="M428.544 93.9531L425.168 95.4778C419.415 97.6268 412.53 97.787 406.904 95.1642C401.05 92.4349 395.899 86.7446 393.836 80.6367C391.689 74.2812 392.271 67.3806 395.464 61.5C398.534 55.8435 404.123 51.6089 410.329 50.0206C416.929 48.3315 424.238 49.8147 429.906 53.4651C435.601 57.1324 438.68 62.4779 439.952 69.0251C441.341 76.174 438.803 82.8516 434.831 88.6867L428.544 93.9531Z"/>
	<path fill="#F1EC05" d="M589.467 88.6702C585.273 83.0613 583.121 76.7601 584.133 69.7118C585.094 63.0226 588.895 57.4202 594.339 53.5512C600.074 49.4748 607.139 48.3279 613.977 49.6789C619.912 50.8516 625.067 54.4633 628.36 59.5215C631.666 64.5991 633.049 71.3342 631.729 77.25C630.234 83.9498 625.69 90.1694 619.792 93.7144C614.309 97.0104 607.544 97.7038 601.386 96.0682C599.58 95.5887 597.873 94.8827 596.188 94.0856C593.698 92.586 591.619 90.6049 589.467 88.6702Z"/>
	<path fill="#080707" d="M586.409 858.123C585.521 863.353 580.846 869.939 578.198 874.656C566.562 895.382 553.471 914.996 538.55 933.507L511.621 965.49C487.098 937.047 463.758 908.533 445.761 875.361C442.915 870.116 439.397 864.734 437.34 859.143L437.556 858.71L459.294 867.612C493.73 878.919 534.563 878.667 568.691 866.253C574.835 864.018 580.587 861.07 586.409 858.123Z"/>
	<path fill="#F9C602" d="M609.584 797.212C608.926 802.801 606.309 808.702 604.474 814.034L592.115 846.14C590.379 850.097 588.763 854.508 586.409 858.123C580.587 861.07 574.835 864.018 568.691 866.253C534.563 878.667 493.73 878.919 459.294 867.612L437.556 858.71C435.457 856.066 434.072 851.912 432.664 848.827C427.025 836.473 422.183 824.02 417.775 811.182C416.392 807.154 414.427 802.911 414.05 798.643L447.315 811.093C461.435 815.195 476.152 817.284 490.765 818.59C531.644 822.242 573.245 817.246 609.584 797.212Z"/>
	<path fill="#080707" d="M402.975 744.328C459.678 772.323 528.675 779.121 588.988 758.76C600.038 755.029 610.345 750.161 620.53 744.528L609.584 797.212C573.245 817.246 531.644 822.242 490.765 818.59C476.152 817.284 461.435 815.195 447.315 811.093L414.05 798.643C412.628 796.558 412.009 792.556 411.326 790.074C407.37 775.699 403.139 759.265 402.975 744.328Z"/>
	<path fill="#ACEA29" d="M698.806 590.51C727.583 623.712 747.668 664.004 754.268 707.577C755.437 715.293 756.682 723.176 756.606 731C745.235 731.129 733.874 731.29 722.542 730.157C696.294 727.532 670.873 718.836 648.125 705.587L633.492 696.305C630.218 694.034 626.156 689.54 622.521 688.343C622.581 673.681 618.342 659.202 616.66 644.741C619.116 644.422 622.021 644.922 624.528 644.958C634.515 645.101 645.496 645.356 654.646 640.762C659.068 637.053 663.148 632.734 667.201 628.63C678.87 616.816 689.413 604.205 698.806 590.51Z"/>
	<path fill="#ACEA29" d="M323.146 588.942L352.22 626.065C356.753 631.804 361.159 638.448 366.25 643.641C367.144 643.012 367.86 642.374 368.617 641.586C377.966 644.319 386.843 645.238 396.504 643.593C400.024 642.994 403.391 641.734 406.889 641.022C404.528 653.059 402.428 665 401.529 677.25C401.241 681.187 400.652 685.6 401.332 689.492L400.974 689.58C398.046 689.299 393.031 693.892 390.595 695.596C376.398 705.525 361.65 713.779 345.448 719.995C321.838 729.054 293.245 733.359 268.082 731.021C269.534 716.269 271.003 701.532 274.043 687C281.704 650.372 298.966 617.28 323.146 588.942Z"/>
	<path fill="#F9C602" d="M622.137 688.624C622.983 692.383 622.566 696.8 622.554 700.66L621.778 726.372C621.381 732.32 620.505 738.593 620.53 744.528C610.345 750.161 600.038 755.029 588.988 758.76C528.675 779.121 459.678 772.323 402.975 744.328C402.131 741.035 402.078 737.037 401.769 733.64C400.44 719.005 400.696 704.255 400.974 689.58L401.332 689.492C412.172 695.523 424.147 700.215 436.004 703.82C467.149 713.291 500.602 716.336 533 714.072C551.272 712.796 569.507 710.316 586.987 704.631C593.734 702.436 600.6 699.974 607 696.892C612.203 694.386 617.052 691.333 622.137 688.624Z"/>
	<path fill="#080707" d="M411.573 622.264L412.146 623.087C414.942 627.198 416.569 631.608 419.75 635.582L420.229 636.195C428.612 646.76 444.153 650.966 456.92 652.423C467.905 653.676 478.007 653.479 487.525 647.42C493.873 652.391 501.515 653.505 509.345 653.858C518.938 654.291 530.943 653.719 538.375 646.877C545.427 652.285 554.671 653.343 563.276 652.673C577.591 651.559 594.942 647.563 604.389 635.92C607.089 632.593 608.447 628.107 611.2 625.061L611.787 624.435C613.594 630.914 615.842 638.066 616.66 644.741C618.342 659.202 622.581 673.681 622.521 688.343L622.137 688.624C617.052 691.333 612.203 694.386 607 696.892C600.6 699.974 593.734 702.436 586.987 704.631C569.507 710.316 551.272 712.796 533 714.072C500.602 716.336 467.149 713.291 436.004 703.82C424.147 700.215 412.172 695.523 401.332 689.492C400.652 685.6 401.241 681.187 401.529 677.25C402.428 665 404.528 653.059 406.889 641.022L411.573 622.264Z"/>
	<path fill="#ACEA29" d="M330.071 507.462C323.972 505.498 318.221 502.029 312.699 498.814C296.62 489.453 281.795 478.582 268.308 465.766C224.352 423.996 197.931 361.442 196.422 300.92L217.965 304.125C278.345 314.641 334.776 344.061 376.98 388.491C385.171 397.113 393.348 406.415 400.184 416.154C379.509 435.134 361.544 455.783 346.444 479.511L330.071 507.462Z"/>
	<path fill="#ACEA29" d="M623.57 417.564C631.985 406.312 640.531 394.598 650.259 384.435C694.157 338.574 754.598 312.216 816.812 303.241L829.674 301.525C825.909 368.346 795.561 431.474 745.748 476.063C730.29 489.899 713.514 499.768 695.457 509.732L683.372 489.467C666.41 463.232 646.722 438.603 623.57 417.564Z"/>
	<path fill="#080707" d="M468.865 128.001C492.434 116.253 519.099 114.779 544.08 123.069L556.806 128.156L566.132 133.044C607.017 157.489 634.031 200.689 645.497 246.25C654.72 282.899 654.238 320.412 643.182 356.63C639.509 368.662 634.675 380.919 628.228 391.747L615.598 410.539C613.453 410.168 610.401 407.159 608.52 405.805L595.679 397.159C585.778 391.142 575.514 386.065 564.734 381.823L552.593 377.149C550.989 376.575 549.291 376.246 547.632 375.855C546.957 370.522 547.61 364.259 547.651 358.833L547.636 350.79C539.432 357.008 530.545 360.763 520.402 362.456C503.216 365.326 488.142 357.965 474.619 348.257C474.622 351.259 474.45 354.39 474.851 357.362L475.056 375.287C473.197 375.61 471.351 375.854 469.6 376.588L459.392 380.752C446.291 385.847 434.078 392.647 422.334 400.338L413.655 406.301C412.16 407.391 410.521 408.871 408.867 409.671C403.504 403.452 398.813 396.698 394.75 389.562C369.477 345.166 366.453 290.973 379.768 242.313C391.641 198.923 419.587 155.431 459.265 132.771L468.865 128.001Z"/>
	<path fill="#F9C602" d="M474.619 348.257L465.048 338.773C436.139 307.472 429.139 259.134 429.527 218.047C468.483 218.457 508.765 211.026 542.335 190.374C549.255 186.116 555.598 181.149 561.819 175.943C567.981 183.238 573.965 190.553 580.978 197.06L589.444 204.285C590.15 204.844 592.385 206.204 592.788 206.907C593.453 208.066 593.648 211.56 593.818 213.006C595.281 225.392 595.315 239.056 594.201 251.473C590.904 288.252 578.115 325.444 548.886 349.705C548.462 350.057 548.003 350.378 547.636 350.79C539.432 357.008 530.545 360.763 520.402 362.456C503.216 365.326 488.142 357.965 474.619 348.257Z"/>
	<path fill="#FEFDEC" d="M476.523 243.773C479.462 244.953 482.672 248.646 483.799 251.547C485.128 254.968 485.618 259.031 484.011 262.427C482.134 266.393 479.35 268.858 475.22 270.348C471.943 271.53 467.72 271.438 464.401 270.52L465.748 269.342L469.004 269.507C472.394 269.574 475.544 268.538 477.952 266.072C481.131 262.815 481.842 258.879 481.534 254.474C481.233 250.179 478.939 247.866 475.884 245.25L476.523 243.773Z"/>
	<path fill="#FEFEFE" d="M561.034 269.563C557.422 271.09 552.745 271.606 548.906 270.519C545.358 269.514 542.669 267.718 540.855 264.47C539.046 261.229 538.451 257.735 539.516 254.125C540.769 249.88 543.381 246.203 547.261 244.025C552.231 241.236 556.013 241.477 561.377 242.905L560.27 243.461L559.728 243.268C558.986 243.021 558.283 242.895 557.524 242.729L556.956 242.586C555.259 242.281 551.969 242.548 550.5 243.5L550.125 243.875C551.166 243.918 551.261 243.742 552.25 243.5C553.684 243.149 555.403 243.614 556.75 244L558.245 244.25L558.552 244.883L558.392 245.129C554.978 244.3 551.432 243.855 548.25 245.699C545.423 247.337 543.286 250.325 542.558 253.5C541.679 257.33 541.918 261.479 544.185 264.816C545.791 267.179 548.45 269.044 551.315 269.437C554.278 269.843 556.352 269.236 559 268.067C560.018 268.827 559.885 269.029 561.226 268.922L561.034 269.563Z"/>
	<path fill="#080707" d="M458.809 221.6C467.449 220.79 478.573 222.264 486.208 226.75C488.011 227.809 488.649 228.278 489.222 230.25L488.363 231.34C484.487 232.039 479.092 229.779 475.378 228.687C467.741 226.341 460.435 223.51 452.331 225.329C449.094 226.055 445.99 227.682 443.034 229.14C446.972 224.479 453.067 222.697 458.809 221.6Z"/>
	<path fill="#080707" d="M556.746 221.167L561.75 221.013C569.925 221.178 577.728 224.128 583.344 230.156C581.43 229.333 579.706 228.141 577.822 227.25C571.557 224.287 566.787 224.337 560.088 225.639L540.162 231.129C538.407 231.561 536.84 231.976 535.25 231.025C535.118 230.117 534.837 229.728 535.365 228.918C536.253 227.558 538.228 226.67 539.671 225.995C545.111 223.449 550.835 222.067 556.746 221.167Z"/>
	<path fill="#FEFDEC" d="M558.392 245.129L558.552 244.883L558.245 244.25L556.75 244C555.403 243.614 553.684 243.149 552.25 243.5C551.261 243.742 551.166 243.918 550.125 243.875L550.5 243.5C551.969 242.548 555.259 242.281 556.956 242.586L557.524 242.729C558.283 242.895 558.986 243.021 559.728 243.268L560.27 243.461L561.377 242.905C567.097 245.477 570.939 248.479 573.91 254.134C572.605 259.797 570.771 264.089 565.75 267.466C564.307 268.437 562.724 269.163 561.034 269.563L561.226 268.922C559.885 269.029 560.018 268.827 559 268.067C560.142 267.078 561.386 266.047 562.277 264.815C564.43 261.839 564.841 256.571 564.252 252.983C563.697 249.605 561.017 247.038 558.392 245.129Z"/>
	<defs>
		<linearGradient id="gradient_0" gradientUnits="userSpaceOnUse" x1="449.79385" y1="251.26863" x2="468.23294" y2="255.79857">
			<stop offset="0" stop-color="#F7EECA"/>
			<stop offset="1" stop-color="#FEF8EC"/>
		</linearGradient>
	</defs>
	<path fill="url(#gradient_0)" d="M464.401 270.52C463.556 270.386 463.839 270.467 462.976 270.17C457.175 268.173 450.986 264.102 448.505 258.25C447.961 256.969 447.748 255.277 448.356 253.99C451.063 248.26 457.409 243.691 463.316 241.886C467.561 240.589 472.785 241.676 476.523 243.773L475.884 245.25C472.154 243.758 469.039 243.45 465.25 245.001C463.647 245.657 462.531 246.503 461.353 247.75L460.495 247.948C459.792 248.952 459.037 249.561 459.099 250.816L460.5 250.108C461.182 250.506 461.582 250.523 461.842 251.328C462.233 252.536 462.116 253.751 462.07 255C461.155 256.52 460.453 256.992 458.743 257.448L458.15 257.581C458.095 260.708 458.824 264.165 461.065 266.469C462.377 267.818 464.032 268.626 465.748 269.342L464.401 270.52Z"/>
	<path fill="#BA9101" d="M511.407 262.99C515.095 274.479 518.233 284.115 524.789 294.458C520.8 296.77 516.067 298.756 511.661 300.08C507.385 299.654 502.97 296.821 499.157 294.888C498.943 293.65 501.817 289.664 502.584 288.367C507.282 280.421 509.724 272.018 511.407 262.99Z"/>
	<path fill="#080707" d="M559 268.067C556.352 269.236 554.278 269.843 551.315 269.437C548.45 269.044 545.791 267.179 544.185 264.816C541.918 261.479 541.679 257.33 542.558 253.5C543.286 250.325 545.423 247.337 548.25 245.699C551.432 243.855 554.978 244.3 558.392 245.129C561.017 247.038 563.697 249.605 564.252 252.983C564.841 256.571 564.43 261.839 562.277 264.815C561.386 266.047 560.142 267.078 559 268.067Z"/>
	<path fill="#FEFDEC" d="M557.756 249.25C559.053 248.93 559.718 249.028 561 249.378C561.933 250.101 562.511 250.513 563.026 251.612C563.555 252.741 563.762 254.882 563.28 256.029C562.997 256.701 562.369 256.757 561.75 257.024C560.177 257.115 559.193 257.194 557.75 256.408C556.903 255.43 556.158 254.083 556.086 252.75C556 251.169 556.798 250.368 557.756 249.25Z"/>
	<path fill="#080707" d="M465.748 269.342C464.032 268.626 462.377 267.818 461.065 266.469C458.824 264.165 458.095 260.708 458.15 257.581L458.743 257.448C460.453 256.992 461.155 256.52 462.07 255C462.116 253.751 462.233 252.536 461.842 251.328C461.582 250.523 461.182 250.506 460.5 250.108L459.099 250.816C459.037 249.561 459.792 248.952 460.495 247.948L461.353 247.75C462.531 246.503 463.647 245.657 465.25 245.001C469.039 243.45 472.154 243.758 475.884 245.25C478.939 247.866 481.233 250.179 481.534 254.474C481.842 258.879 481.131 262.815 477.952 266.072C475.544 268.538 472.394 269.574 469.004 269.507L465.748 269.342Z"/>
	<path fill="#FEFDEC" d="M474.359 249.75C475.436 249.745 476.143 250.008 477.176 250.311C478.397 251.939 478.456 252.211 478.585 254.25C477.848 255.383 477.491 255.461 476.25 256.051C475.214 255.995 474.486 255.802 473.5 255.511C472.154 254.204 472.206 254.125 471.949 252.25C472.755 250.75 472.753 250.512 474.359 249.75Z"/>
	<path fill="#973711" d="M490.215 309.161L533.534 309.293C531.561 312.903 529.096 315.628 526.239 318.545C524.65 319.773 523.037 321.064 521.267 322.02C516.278 324.715 510.66 325.299 505.25 323.489C497.94 321.043 493.535 315.895 490.215 309.161Z"/>
	<path fill="#2C2A29" d="M474.619 348.257C488.142 357.965 503.216 365.326 520.402 362.456C530.545 360.763 539.432 357.008 547.636 350.79L547.651 358.833C547.61 364.259 546.957 370.522 547.632 375.855C549.291 376.246 550.989 376.575 552.593 377.149L564.734 381.823C575.514 386.065 585.778 391.142 595.679 397.159L608.52 405.805C610.401 407.159 613.453 410.168 615.598 410.539L623.57 417.564C646.722 438.603 666.41 463.232 683.372 489.467L695.457 509.732C702.035 523.816 712.148 539.578 711.986 555.761C711.928 561.56 710.439 567.141 708.46 572.547C706.084 579.036 702.633 584.784 698.806 590.51C689.413 604.205 678.87 616.816 667.201 628.63C663.148 632.734 659.068 637.053 654.646 640.762C645.496 645.356 634.515 645.101 624.528 644.958C622.021 644.922 619.116 644.422 616.66 644.741C615.842 638.066 613.594 630.914 611.787 624.435L611.2 625.061C608.447 628.107 607.089 632.593 604.389 635.92C594.942 647.563 577.591 651.559 563.276 652.673C554.671 653.343 545.427 652.285 538.375 646.877C530.943 653.719 518.938 654.291 509.345 653.858C501.515 653.505 493.873 652.391 487.525 647.42C478.007 653.479 467.905 653.676 456.92 652.423C444.153 650.966 428.612 646.76 420.229 636.195L419.75 635.582C416.569 631.608 414.942 627.198 412.146 623.087L411.573 622.264L406.889 641.022C403.391 641.734 400.024 642.994 396.504 643.593C386.843 645.238 377.966 644.319 368.617 641.586C367.86 642.374 367.144 643.012 366.25 643.641C361.159 638.448 356.753 631.804 352.22 626.065L323.146 588.942C320.154 585.317 317.665 581.476 316.069 577.019C311.035 562.956 314.442 548.683 318.948 535C322.065 525.535 325.791 516.46 330.071 507.462L346.444 479.511C361.544 455.783 379.509 435.134 400.184 416.154C403.029 413.925 405.699 411.439 408.867 409.671C410.521 408.871 412.16 407.391 413.655 406.301L422.334 400.338C434.078 392.647 446.291 385.847 459.392 380.752L469.6 376.588C471.351 375.854 473.197 375.61 475.056 375.287L474.851 357.362C474.45 354.39 474.622 351.259 474.619 348.257Z"/>
	<path fill="#F69B07" d="M402 608.173L415.843 608.053L411.573 622.264L406.889 641.022C403.391 641.734 400.024 642.994 396.504 643.593C386.843 645.238 377.966 644.319 368.617 641.586C376.077 633.299 384.357 625.538 392.347 617.755C395.357 614.823 399.722 611.624 402 608.173Z"/>
	<path fill="#F69B07" d="M606.305 607.936C610.728 608.152 615.561 608.242 619.921 607.459C625.213 614.632 633.279 620.575 639.8 626.698C644.747 631.344 649.227 636.661 654.646 640.762C645.496 645.356 634.515 645.101 624.528 644.958C622.021 644.922 619.116 644.422 616.66 644.741C615.842 638.066 613.594 630.914 611.787 624.435L606.305 607.936Z"/>
	<path fill="#ACEA29" d="M597.95 526.806L609.16 483.605L644.543 522.388C638.532 524.234 632.159 524.753 625.923 525.292L597.95 526.806Z"/>
	<path fill="#ACEA29" d="M379.249 522.332C386.166 511.162 394.636 500.908 403.475 491.217C407.169 487.167 410.987 482.672 415.398 479.406L424.362 526.147C422.272 527.162 418.542 526.653 416.207 526.608C403.868 526.369 391.3 525.003 379.249 522.332Z"/>
	<path fill="#20AD14" d="M379.249 522.332C391.3 525.003 403.868 526.369 416.207 526.608C418.542 526.653 422.272 527.162 424.362 526.147L426.086 534.128C404.62 540.885 384.573 550.024 364.807 560.751C363.634 559.461 362.903 558.142 362.094 556.603C362.243 554.28 363.401 551.814 364.208 549.642C367.715 540.189 373.518 530.607 379.249 522.332Z"/>
	<path fill="#20AD14" d="M644.543 522.388L665.579 549.592L657.582 560.587C654.372 557.937 649.966 556.03 646.259 554.178C629.944 546.027 613.325 540.451 595.792 535.63L597.95 526.806L625.923 525.292C632.159 524.753 638.532 524.234 644.543 522.388Z"/>
	<path fill="#F9C602" d="M487.525 647.42C492.222 642.301 494.833 636.478 497.76 630.256C502.674 619.811 506.841 608.626 512.512 598.604L529.042 632.726C531.686 637.611 534.119 642.356 537.951 646.433L538.375 646.877C530.943 653.719 518.938 654.291 509.345 653.858C501.515 653.505 493.873 652.391 487.525 647.42Z"/>
	<path fill="#ACEA29" d="M364.807 560.751C384.573 550.024 404.62 540.885 426.086 534.128L430.536 555.368C431.103 558.289 432.137 561.855 432.213 564.81C432.241 565.858 431.331 567.155 430.863 568.067C429.602 570.521 428.372 572.943 427.323 575.498C422.923 586.211 419.968 597.302 415.843 608.053L402 608.173C400.323 606.733 398.989 604.578 397.652 602.8L389.774 592.368L364.807 560.751Z"/>
	<path fill="#ACEA29" d="M595.792 535.63C613.325 540.451 629.944 546.027 646.259 554.178C649.966 556.03 654.372 557.937 657.582 560.587C650.652 571.238 642.922 581.094 634.564 590.655L625.125 601.254C623.35 603.228 621.288 605.176 619.921 607.459C615.561 608.242 610.728 608.152 606.305 607.936L595.358 578.499L591.5 569.75C590.85 568.368 589.712 566.693 589.277 565.264C588.531 562.809 594.814 539.578 595.792 535.63Z"/>
	<path fill="#AEAEAE" d="M459.392 380.752L469.6 376.588C469.176 401.917 471.136 426.535 474.238 451.644L478.813 486.019L484.083 508.69C485.723 515.313 487.149 522.162 489.504 528.568C491.201 536.651 494.62 544.46 498.196 551.876C502.395 560.581 506.946 568.992 512.901 576.644C520.055 566.014 526.162 554.442 530.686 542.447C532.453 537.764 534.256 532.939 535.203 528.01C537.52 521.762 538.942 514.918 540.52 508.444C548.172 477.054 551.233 445.176 552.764 412.982C553.328 401.138 554.247 388.937 552.593 377.149L564.734 381.823C565.236 384.433 566.649 387.307 567.589 389.802L572.963 404.429L590.605 454.907L563.115 457.047L584.098 486.975C582.543 491.081 578.719 495.593 576.167 499.246C562.299 519.092 546.992 537.763 531.629 556.456C525.327 564.124 519.306 572.594 512.216 579.504C506.222 573.235 500.967 565.959 495.568 559.162L464.908 519.586L447.544 495.488C445.517 492.503 442.933 489.334 441.405 486.076L460.814 457.532L432.046 452.962L459.23 381.201L459.392 380.752Z"/>
	<path fill="#FEFEFE" d="M474.619 348.257C488.142 357.965 503.216 365.326 520.402 362.456C530.545 360.763 539.432 357.008 547.636 350.79L547.651 358.833C547.61 364.259 546.957 370.522 547.632 375.855C549.291 376.246 550.989 376.575 552.593 377.149C554.247 388.937 553.328 401.138 552.764 412.982C551.233 445.176 548.172 477.054 540.52 508.444C538.942 514.918 537.52 521.762 535.203 528.01C534.256 532.939 532.453 537.764 530.686 542.447C526.162 554.442 520.055 566.014 512.901 576.644C506.946 568.992 502.395 560.581 498.196 551.876C494.62 544.46 491.201 536.651 489.504 528.568C487.149 522.162 485.723 515.313 484.083 508.69L478.813 486.019L474.238 451.644C471.136 426.535 469.176 401.917 469.6 376.588C471.351 375.854 473.197 375.61 475.056 375.287L474.851 357.362C474.45 354.39 474.622 351.259 474.619 348.257Z"/>
	<path fill="#F9C602" d="M474.619 348.257C488.142 357.965 503.216 365.326 520.402 362.456C530.545 360.763 539.432 357.008 547.636 350.79L547.651 358.833C547.61 364.259 546.957 370.522 547.632 375.855L546.762 378.25C542.244 388.49 530.085 397.563 519.867 401.497C512.505 404.332 508.139 403.65 501.107 400.391C490.913 395.667 479.049 386.119 475.056 375.287L474.851 357.362C474.45 354.39 474.622 351.259 474.619 348.257Z"/>
	<path fill="#BA9101" d="M474.619 348.257C488.142 357.965 503.216 365.326 520.402 362.456C530.545 360.763 539.432 357.008 547.636 350.79L547.651 358.833C538.997 367.16 530.062 373.388 517.633 374.383C504.305 375.45 494.148 372.473 483.38 364.595C480.403 362.417 477.667 359.757 474.851 357.362C474.45 354.39 474.622 351.259 474.619 348.257Z"/>
	<path fill="#F1EC05" d="M489.504 528.568L499.373 462.422L501.295 450.076C501.717 447.802 502.506 445.316 502.527 443.027C495.964 439.809 490.246 435.369 484.283 431.196C495.201 425.645 505.223 419.368 512.325 409.107L512.585 409.453C519.453 418.418 529.901 426.218 539.368 432.299C533.739 436.86 527.787 440.709 521.107 443.545C523.612 452.58 524.988 462.021 526.463 471.274L531.429 503.661C532.526 511.579 533.189 520.284 535.203 528.01C534.256 532.939 532.453 537.764 530.686 542.447C526.162 554.442 520.055 566.014 512.901 576.644C506.946 568.992 502.395 560.581 498.196 551.876C494.62 544.46 491.201 536.651 489.504 528.568Z"/>
</svg>
