<?xml version="1.0" encoding="utf-8" ?>
<svg xmlns="http://www.w3.org/2000/svg" xmlns:xlink="http://www.w3.org/1999/xlink" width="1024" height="1024">
	<path fill="#0CBEE2" d="M-0 -0L1024 0L1024 1024L-0 1024L0 -0Z"/>
	<path fill="#050302" d="M404.71 936.513L440.296 936.636L439.321 942.714L405.571 942.738L404.71 936.513Z"/>
	<path fill="#050302" d="M583.761 937.847C584.805 936.648 585.663 936.765 587.251 936.656C592.289 936.308 618.56 935.539 621.307 937.911L620.327 942.831L619.738 942.953C616.247 943.492 586.035 943.543 584.45 942.5L583.761 937.847Z"/>
	<path fill="#050302" d="M371.091 101.597C395.722 107.44 416.589 128.298 429.475 149.189C437.585 162.334 442.204 176.115 446.41 190.866L435.987 195.131C427.322 168.019 415.131 141.411 391.071 124.551C384.38 119.863 376.815 116.414 369.608 112.595C370.694 109.119 370.771 105.217 371.091 101.597Z"/>
	<path fill="#050302" d="M575.873 191.137C580.199 176.015 585.443 161.95 593.882 148.567C605.027 130.892 620.614 116.01 639.725 107.288C643.331 105.642 647.092 103.779 650.974 102.912C651.342 103.196 651.874 103.347 652.077 103.764C652.347 104.319 652.404 106.118 652.502 106.812L653.576 113.664L653.634 114.385C624.828 125.372 606.492 146.833 594.2 174.543L586.741 194.978L586 195.386L575.873 191.137Z"/>
	<path fill="#171E34" d="M369.608 112.595L366.394 117.255C362.739 121.974 357.933 124.827 352.001 125.614C345.985 126.413 339.698 125.363 334.826 121.502C330.442 118.028 327.044 112.63 326.479 106.998C325.852 100.75 327.199 94.5582 331.25 89.5933C335.04 84.9475 340.395 81.9466 346.418 81.5276C352.808 81.0832 359.059 82.9937 363.88 87.3257C367.882 90.9214 370.751 96.231 371.091 101.597C370.771 105.217 370.694 109.119 369.608 112.595Z"/>
	<path fill="#171E34" d="M650.974 102.912C652.89 101.452 652.938 98.5072 653.929 96.2768C658.043 87.0171 667.73 81.9128 677.719 83.2844C683.886 84.1314 689.246 87.4896 692.907 92.5025C696.494 97.4142 697.786 103.297 696.675 109.289C695.596 115.108 691.654 121.19 686.75 124.46C682.18 127.507 675.017 128.904 669.614 127.682C663.595 126.32 658.491 122.747 655.323 117.447L653.634 114.385L653.576 113.664L652.502 106.812C652.404 106.118 652.347 104.319 652.077 103.764C651.874 103.347 651.342 103.196 650.974 102.912Z"/>
	<path fill="#171E34" d="M393.456 851.513L393.128 841.949L453.011 841.653C452.34 847.164 448.19 867.175 449.558 871.281L440.296 936.636L404.71 936.513L393.456 851.513Z"/>
	<path fill="#171E34" d="M572.961 871.179C573.163 870.869 573.512 870.616 573.566 870.25C573.918 867.85 572.421 862.999 572.002 860.507L569.368 842.04L633.553 841.827C634.401 842.655 634.02 845.511 634.302 846.862L634.514 847.82C633.398 850.132 633.316 852.979 632.961 855.5L631.222 867.54L621.307 937.911C618.56 935.539 592.289 936.308 587.251 936.656C585.663 936.765 584.805 936.648 583.761 937.847C582.919 933.964 582.523 929.923 581.85 925.996L576.302 891.115L574.457 878.57C574.161 876.314 574.197 873.114 572.961 871.179Z"/>
	<path fill="#050302" d="M356.092 823.981L669.262 823.971C658.971 833.107 647.077 842.08 634.514 847.82L634.302 846.862C634.02 845.511 634.401 842.655 633.553 841.827L569.368 842.04L572.002 860.507C572.421 862.999 573.918 867.85 573.566 870.25C573.512 870.616 573.163 870.869 572.961 871.179C559.417 874.275 545.746 875.581 531.903 876.362C504.172 877.927 476.871 876.198 449.558 871.281C448.19 867.175 452.34 847.164 453.011 841.653L393.128 841.949L393.456 851.513C380.421 843.621 366.433 835.334 356.092 823.981Z"/>
	<path fill="#FBC40F" d="M384.296 774.615L639.179 775.023L639.286 781.308L701.555 781.204C692.524 796.791 682.22 811.386 669.262 823.971L356.092 823.981L343.846 810.011C336.462 801.1 329.951 791.988 324.068 782.015L384.403 782.014L384.296 774.615Z"/>
	<path fill="#2D6689" d="M384.296 774.615L639.179 775.023L639.286 781.308C638.354 786.289 636.838 790.279 632.473 793.305C631.363 794.073 630.241 794.593 629 795.102L628.38 795.365C626.468 796.108 624.391 796.1 622.37 796.144L581.373 796.132L506.034 796.095L438.909 796.215L403 796.21C399.685 796.116 396.53 795.882 393.461 794.487C389.351 792.619 386.55 789.558 385.187 785.25L384.403 782.014L384.296 774.615Z"/>
	<path fill="#171E34" d="M446.41 190.866C453.745 188.547 461.137 186.087 468.656 184.449C497.375 178.194 527.947 178.244 556.503 185.343C562.603 186.86 569.683 188.383 575.414 190.885L575.873 191.137L586 195.386L586.741 194.978L587.287 195.399C589.317 196.905 592.292 197.785 594.601 198.843C598.369 200.57 602.097 202.533 605.684 204.61C624.207 215.334 640.954 228.671 654.985 244.838C657.708 247.976 661.055 251.485 662.649 255.37C635.092 244.046 606.881 243.404 579.214 255.045C562.174 262.215 548.297 273.129 536.282 287.079C533.764 285.918 530.533 285.982 527.804 285.946L514.297 285.914C508.332 285.927 502.202 285.617 496.267 286.043C494.343 286.181 492.392 286.632 490.52 287.088C489.99 286.921 489.398 286.886 488.931 286.587C488.215 286.127 487.204 284.678 486.59 284.016L481.118 278.299C477.273 274.394 473.152 270.7 468.768 267.408C461.498 261.95 453.164 257.415 444.735 254.03C424.465 245.889 401.394 243.716 380.112 248.839C372.358 250.706 365.001 253.745 357.678 256.845C376.861 228.726 405.95 209.814 435.987 195.131L446.41 190.866Z"/>
	<path fill="#91E4F1" d="M652.007 479.408L652.412 479.322C655.914 478.406 659.647 473.776 662.702 471.58L695.5 449.523C738.31 423.703 790.266 405.636 840.657 405.979C852.906 406.062 867.756 407.275 878.703 413.244C885.902 417.169 890.056 423.345 892.295 431.171C894.106 437.501 894.305 444.228 894.051 450.775C893.054 476.462 882.367 503.46 869.774 525.595C849.894 560.538 820.647 590.272 785.516 609.944C766.313 620.696 746.28 628.179 725.089 633.936L712.132 637.096L708.352 624.619L687.237 624.868C688.249 622.157 688.618 618.91 689.178 616.058C690.305 610.314 691.393 604.43 691.789 598.583C692.064 594.517 691.623 590.503 692.312 586.454L692.119 585.894C691.066 583.075 690.425 580.495 689.859 577.543C688.006 566.462 683.122 555.198 677.948 545.312C676.206 541.985 674.319 538.068 671.673 535.372L670.998 534.325C664.672 524.388 656.664 514.669 648.678 506.017C644.888 501.911 641.105 497.621 636.644 494.235L652.007 479.408Z"/>
	<path fill="#171E34" d="M692.312 586.454C699.438 598.181 704.101 611.625 708.352 624.619L687.237 624.868C688.249 622.157 688.618 618.91 689.178 616.058C690.305 610.314 691.393 604.43 691.789 598.583C692.064 594.517 691.623 590.503 692.312 586.454Z"/>
	<path fill="#91E4F1" d="M311.905 638.65C307.982 638.313 303.926 637.133 300.078 636.275C283.991 632.689 267.942 626.863 253.367 619.148C199.543 590.656 153.767 540.233 135.846 481.436C130.572 464.133 125.76 438.723 134.774 422.007C139.351 413.517 147.481 409.024 156.516 406.495C167.33 403.467 178.995 403.781 190.104 404.436C234.441 407.049 278.99 421.306 318.152 441.965L349.802 460.277C352.215 461.814 354.74 463.313 357 465.069C358.499 466.233 359.783 467.668 361.486 468.545L362.351 468.967L383.506 490.803C371.7 504.353 361.91 518.493 352.638 533.86C348.357 539.943 345.043 547.004 342.047 553.794C336.125 565.804 332.29 580.498 332.428 593.971C332.521 606.102 333.874 616.843 336.862 628.623L315.246 628.859L311.905 638.65Z"/>
	<path fill="#171E34" d="M332.428 593.971C332.521 606.102 333.874 616.843 336.862 628.623L315.246 628.859L326.105 602.653C327.403 599.795 328.571 596.1 330.601 593.75L332.428 593.971Z"/>
	<path fill="#FBE126" d="M357.678 256.845C365.001 253.745 372.358 250.706 380.112 248.839C401.394 243.716 424.465 245.889 444.735 254.03C453.164 257.415 461.498 261.95 468.768 267.408C473.152 270.7 477.273 274.394 481.118 278.299L486.59 284.016C487.204 284.678 488.215 286.127 488.931 286.587C489.398 286.886 489.99 286.921 490.52 287.088C492.392 286.632 494.343 286.181 496.267 286.043C502.202 285.617 508.332 285.927 514.297 285.914L527.804 285.946C530.533 285.982 533.764 285.918 536.282 287.079C548.297 273.129 562.174 262.215 579.214 255.045C606.881 243.404 635.092 244.046 662.649 255.37C683.121 266.087 699.159 281.895 706.206 304.427C710.714 318.84 710.424 335.515 706.104 349.931C705.015 353.563 703.373 356.952 702.145 360.523C693.375 374.594 684.064 385.767 669.451 394.051L669.385 394.016C666.218 395.063 663.179 396.977 660.112 398.343C638.565 407.943 612.656 406.909 590.886 398.528C562.692 387.675 543.863 364.267 537.717 334.831C536.75 330.202 536.079 325.436 535.712 320.721C535.424 317.015 535.596 312.522 534.492 309C533.552 306 531.276 303.656 529.989 300.766C528.442 300.151 526.804 299.448 525.163 299.149C521.996 298.572 518.278 298.879 515.054 298.873C509.403 298.862 502.294 298.079 497.06 300.43L495.935 301.013C494.687 303.968 493.204 307.097 492.493 310.229C490.718 318.042 490.935 326.34 489.44 334.268C483.868 363.811 464.362 388.229 436.5 399.545C415.721 407.985 388.495 407.288 367.881 398.543C362.895 396.428 358.126 392.568 353.169 390.908C341.267 382.349 331.863 372.028 324.061 359.657C315.541 343.105 313.865 325.072 317.967 306.984C321.701 290.519 333.053 275.078 346.036 264.624C349.687 261.684 353.723 259.342 357.678 256.845Z"/>
	<path fill="#050302" d="M602.845 301.716C610.659 301.922 618.291 304.025 624.656 308.697C631.482 313.707 636.541 322.211 637.639 330.582C638.802 339.445 636.821 347.842 631.209 354.904C624.283 363.621 616.609 367.048 605.741 368.437C598.661 368.485 591.602 367.083 585.5 363.391C578.193 358.97 572.488 351.663 570.528 343.279L570.355 342.5L569.713 338.964C568.701 329.868 571.566 320.23 577.535 313.25C584.282 305.361 592.759 302.489 602.845 301.716Z"/>
	<path fill="#FFFFFE" d="M614.521 308.567C617.379 308.607 619.995 309.265 622.489 310.678C626.077 312.711 628.702 315.874 629.716 319.916C630.602 323.449 629.921 327.568 628.034 330.675C625.673 334.562 622.355 335.996 618.115 337.02C614.934 337.125 611.801 336.892 608.967 335.292C605.854 333.534 603.305 330.209 602.398 326.751C601.377 322.863 601.923 318.251 604.166 314.867C606.694 311.051 610.186 309.479 614.521 308.567Z"/>
	<path fill="#050302" d="M415.435 302.173C423.475 301.51 431.799 302.789 438.76 307.079C446.592 311.905 452.244 320.483 454.2 329.409C455.971 337.492 453.292 346.726 448.909 353.544C443.129 362.536 434.756 366.859 424.554 369.019C415.339 369.973 406.531 368.354 398.825 363.018C391.16 357.711 386.576 349.554 385.073 340.46C383.629 331.727 386.113 322.745 391.254 315.594C397.073 307.5 405.86 303.736 415.435 302.173Z"/>
	<path fill="#FFFFFE" d="M403.599 309.145C407.046 309.388 409.983 309.651 413 311.492C416.216 313.454 418.597 316.745 419.449 320.425C420.361 324.359 419.371 329.226 417.041 332.5C414.236 336.441 410.707 337.61 406.141 338.362C403.213 338.161 400.511 337.695 397.959 336.153C394.292 333.936 392.002 330.383 391.147 326.219C390.303 322.113 391.054 318.523 393.488 315.062C396.012 311.472 399.4 309.893 403.599 309.145Z"/>
	<path fill="#FBC40F" d="M357.678 256.845C365.001 253.745 372.358 250.706 380.112 248.839C401.394 243.716 424.465 245.889 444.735 254.03C453.164 257.415 461.498 261.95 468.768 267.408C473.152 270.7 477.273 274.394 481.118 278.299L486.59 284.016C487.204 284.678 488.215 286.127 488.931 286.587C489.398 286.886 489.99 286.921 490.52 287.088L490.118 287.416C487.519 289.51 484.348 291.105 481.949 293.386C480.257 294.994 478.845 297.083 477.559 299.019C465.008 279.413 444.38 267.902 422.016 263.031C401.838 258.637 380.514 262.986 363.333 274.286C348.725 283.893 337.809 298.937 334.361 316.217C333.069 322.689 333.107 329.659 334.29 336.135C337.266 352.411 346.996 367.285 360.443 376.946C376.637 388.58 396.105 394.826 416.089 391.575L418.5 391.113L419.393 390.937C438.417 387.089 456.21 373.898 466.788 357.815C472.257 349.501 476.293 339.571 478.017 329.75C478.664 326.069 478.711 321.83 479.876 318.311C480.64 316.005 482.97 313.586 484.511 311.74C487.669 307.959 491.19 302.845 495.935 301.013C494.687 303.968 493.204 307.097 492.493 310.229C490.718 318.042 490.935 326.34 489.44 334.268C483.868 363.811 464.362 388.229 436.5 399.545C415.721 407.985 388.495 407.288 367.881 398.543C362.895 396.428 358.126 392.568 353.169 390.908C341.267 382.349 331.863 372.028 324.061 359.657C315.541 343.105 313.865 325.072 317.967 306.984C321.701 290.519 333.053 275.078 346.036 264.624C349.687 261.684 353.723 259.342 357.678 256.845Z"/>
	<path fill="#FBC40F" d="M536.282 287.079C548.297 273.129 562.174 262.215 579.214 255.045C606.881 243.404 635.092 244.046 662.649 255.37C683.121 266.087 699.159 281.895 706.206 304.427C710.714 318.84 710.424 335.515 706.104 349.931C705.015 353.563 703.373 356.952 702.145 360.523C693.375 374.594 684.064 385.767 669.451 394.051L669.385 394.016C666.218 395.063 663.179 396.977 660.112 398.343C638.565 407.943 612.656 406.909 590.886 398.528C562.692 387.675 543.863 364.267 537.717 334.831C536.75 330.202 536.079 325.436 535.712 320.721C535.424 317.015 535.596 312.522 534.492 309C533.552 306 531.276 303.656 529.989 300.766L530.377 300.942L531.005 301.269C534.878 303.235 538.029 307.105 541.051 310.181C542.683 311.843 544.889 313.728 545.729 315.935C547.361 320.22 547.342 325.858 548.346 330.441C552.015 347.193 560.26 361.492 573.433 372.565C588.082 384.879 609.516 390.582 628.45 388.679C646.504 386.864 664.744 379.905 676.389 365.472C687.867 351.247 692.586 336.02 690.535 317.781C688.763 302.024 679.149 287.619 666.953 277.908C650.333 264.674 629.118 260.237 608.379 262.81C583.769 265.863 563.464 278.619 548.38 298.09C546.688 296.772 545.432 294.596 543.901 293.032C541.576 290.656 538.921 289.055 536.282 287.079Z"/>
	<path fill="#FA9804" d="M495.935 301.013L497.06 300.43C502.294 298.079 509.403 298.862 515.054 298.873C518.278 298.879 521.996 298.572 525.163 299.149C526.804 299.448 528.442 300.151 529.989 300.766C531.276 303.656 533.552 306 534.492 309C535.596 312.522 535.424 317.015 535.712 320.721C536.079 325.436 536.75 330.202 537.717 334.831C543.863 364.267 562.692 387.675 590.886 398.528C612.656 406.909 638.565 407.943 660.112 398.343C663.179 396.977 666.218 395.063 669.385 394.016L669.451 394.051C684.064 385.767 693.375 374.594 702.145 360.523C699.351 395.277 689.785 427.951 669.706 456.773C666.442 461.459 663.105 466.17 659.476 470.577C657.066 473.504 654.176 476.319 652.007 479.408L636.644 494.235C622.46 506.938 605.656 516.942 588.241 524.543C582.233 527.165 575.784 528.99 569.53 530.928C567.592 531.529 562.593 532.45 561.25 533.88L562.665 534.395L560.595 534.808C564.465 535.936 570.464 535.006 574.577 534.998L592.767 535.243C596.165 535.203 600.672 534.454 603.875 535.375C590.13 536.125 576.222 534.945 562.5 535.378L561.087 535.733L561.494 536.043C557.146 536.75 552.386 535.873 547.906 536.407C538.911 537.48 530.157 539.243 521.064 539.886C513.769 540.401 506.301 539.802 499.042 539.108C488.494 538.099 477.858 536.579 467.625 533.746C436.513 527.101 407.154 511.981 383.506 490.803L362.351 468.967C345.058 446.195 332.035 421.042 326.767 392.692C324.729 381.726 324.101 370.783 324.061 359.657C331.863 372.028 341.267 382.349 353.169 390.908C358.126 392.568 362.895 396.428 367.881 398.543C388.495 407.288 415.721 407.985 436.5 399.545C464.362 388.229 483.868 363.811 489.44 334.268C490.935 326.34 490.718 318.042 492.493 310.229C493.204 307.097 494.687 303.968 495.935 301.013Z"/>
	<path fill="#050302" d="M484.195 385.75C485.01 385.567 485.916 385.545 486.75 385.457C489.131 386.127 490.855 388.517 492.607 390.186C502.456 399.573 517.226 400.407 528.776 393.695C531.824 391.924 534.19 387.725 537.25 386.53C537.699 386.355 538.962 386.491 539.5 386.478C541.123 387.433 541.137 387.503 541.859 389.25C541.734 391.453 541.09 392.653 539.878 394.471C533.544 400.925 526.236 405.431 517.086 406.502C506.565 407.733 496.616 404.74 488.34 398.11C485.228 395.617 482.262 392.625 481.822 388.5C482.501 386.864 482.803 386.736 484.195 385.75Z"/>
	<defs>
		<linearGradient id="gradient_0" gradientUnits="userSpaceOnUse" x1="530.38037" y1="542.46826" x2="510.16925" y2="344.58725">
			<stop offset="0" stop-color="#0D0E11"/>
			<stop offset="1" stop-color="#19294B"/>
		</linearGradient>
	</defs>
	<path fill="url(#gradient_0)" d="M324.061 359.657C331.863 372.028 341.267 382.349 353.169 390.908C354.675 399.377 357.788 408.068 361.08 416C371.983 442.269 389.5 466.203 412.898 482.704C451.241 509.745 497.463 519.81 543.561 511.695C585.067 504.388 623.973 478.251 647.803 443.653C658.395 428.275 665.117 412.111 669.385 394.016L669.451 394.051C684.064 385.767 693.375 374.594 702.145 360.523C699.351 395.277 689.785 427.951 669.706 456.773C666.442 461.459 663.105 466.17 659.476 470.577C657.066 473.504 654.176 476.319 652.007 479.408L636.644 494.235C622.46 506.938 605.656 516.942 588.241 524.543C582.233 527.165 575.784 528.99 569.53 530.928C567.592 531.529 562.593 532.45 561.25 533.88L562.665 534.395L560.595 534.808C564.465 535.936 570.464 535.006 574.577 534.998L592.767 535.243C596.165 535.203 600.672 534.454 603.875 535.375C590.13 536.125 576.222 534.945 562.5 535.378L561.087 535.733L561.494 536.043C557.146 536.75 552.386 535.873 547.906 536.407C538.911 537.48 530.157 539.243 521.064 539.886C513.769 540.401 506.301 539.802 499.042 539.108C488.494 538.099 477.858 536.579 467.625 533.746C436.513 527.101 407.154 511.981 383.506 490.803L362.351 468.967C345.058 446.195 332.035 421.042 326.767 392.692C324.729 381.726 324.101 370.783 324.061 359.657Z"/>
	<path fill="#3583A5" d="M383.506 490.803C407.154 511.981 436.513 527.101 467.625 533.746C477.858 536.579 488.494 538.099 499.042 539.108C506.301 539.802 513.769 540.401 521.064 539.886C530.157 539.243 538.911 537.48 547.906 536.407C552.386 535.873 557.146 536.75 561.494 536.043L561.087 535.733L562.5 535.378C576.222 534.945 590.13 536.125 603.875 535.375C600.672 534.454 596.165 535.203 592.767 535.243L574.577 534.998C570.464 535.006 564.465 535.936 560.595 534.808L562.665 534.395L561.25 533.88C562.593 532.45 567.592 531.529 569.53 530.928C575.784 528.99 582.233 527.165 588.241 524.543C605.656 516.942 622.46 506.938 636.644 494.235C641.105 497.621 644.888 501.911 648.678 506.017C656.664 514.669 664.672 524.388 670.998 534.325L671.673 535.372C674.319 538.068 676.206 541.985 677.948 545.312C683.122 555.198 688.006 566.462 689.859 577.543C690.425 580.495 691.066 583.075 692.119 585.894L692.312 586.454C691.623 590.503 692.064 594.517 691.789 598.583C691.393 604.43 690.305 610.314 689.178 616.058C688.618 618.91 688.249 622.157 687.237 624.868L708.352 624.619L712.132 637.096C715.393 646.929 717.073 657.719 718.376 667.991L720.692 704.133C720.62 718.747 718.085 732.459 714.768 746.633C712.217 756.058 709.196 764.878 705.272 773.837C704.275 776.115 703.197 779.342 701.555 781.204L639.286 781.308L639.179 775.023L384.296 774.615L384.403 782.014L324.068 782.015C317.635 771.204 312.597 758.991 309.026 746.941C305.087 732.826 302.861 719.034 301.919 704.409C300.694 691.894 302.743 678.44 304.669 666.062L311.905 638.65L315.246 628.859L336.862 628.623C333.874 616.843 332.521 606.102 332.428 593.971C332.29 580.498 336.125 565.804 342.047 553.794C345.043 547.004 348.357 539.943 352.638 533.86C361.91 518.493 371.7 504.353 383.506 490.803Z"/>
	<path fill="#FFFFFE" d="M510.243 670.654L512.25 670.717C516.783 671.294 520.705 673.406 523.475 677.028C526.039 680.381 527.345 684.514 526.703 688.745L526.574 689.5C526.252 691.45 525.68 693.022 524.629 694.716C521.7 699.441 517.332 701.351 512.128 702.528C509.138 702.574 505.738 701.96 503.161 700.36C498.914 697.723 495.902 693.746 494.893 688.811C494.117 685.016 495.683 680.479 497.823 677.373C501 672.764 505.018 671.504 510.243 670.654Z"/>
	<path fill="#050302" d="M666.828 568.077L666.83 566.251C668.238 565.316 670.573 565.696 672.25 566.013C676.793 566.871 681.124 569.849 684.537 572.857C686.395 574.494 687.669 576.304 689.859 577.543C690.425 580.495 691.066 583.075 692.119 585.894L692.312 586.454C691.623 590.503 692.064 594.517 691.789 598.583C691.393 604.43 690.305 610.314 689.178 616.058C688.618 618.91 688.249 622.157 687.237 624.868L708.352 624.619L712.132 637.096C715.393 646.929 717.073 657.719 718.376 667.991L720.692 704.133C720.62 718.747 718.085 732.459 714.768 746.633C712.217 756.058 709.196 764.878 705.272 773.837C704.275 776.115 703.197 779.342 701.555 781.204L639.286 781.308L639.179 775.023L639.219 746.654L639.177 704.349L639.043 702.185L639.166 669.097L638.983 629.7C638.577 623.098 638.227 615.365 639.211 608.837C649.318 607.663 659.772 602.739 668.553 597.796L666.828 568.077Z"/>
	<path fill="#FBE126" d="M638.983 629.7C647.384 628.276 655.921 627.041 664.034 624.368C659.585 636.856 654.556 648.34 647.17 659.41C644.782 662.99 642.694 666.527 639.166 669.097L638.983 629.7Z"/>
	<path fill="#171E34" d="M708.352 624.619L712.132 637.096C715.393 646.929 717.073 657.719 718.376 667.991L720.692 704.133L639.177 704.349L639.043 702.185C642.521 700.427 645.192 696.792 647.853 694.042C655.857 685.77 663.455 677.577 670.352 668.327L676.843 655.557C681.401 645.667 685.009 635.529 687.237 624.868L708.352 624.619Z"/>
	<path fill="#FBE126" d="M708.352 624.619L712.132 637.096C715.393 646.929 717.073 657.719 718.376 667.991L670.352 668.327L676.843 655.557C681.401 645.667 685.009 635.529 687.237 624.868L708.352 624.619Z"/>
	<path fill="#FBC40F" d="M720.692 704.133C720.62 718.747 718.085 732.459 714.768 746.633C712.217 756.058 709.196 764.878 705.272 773.837C704.275 776.115 703.197 779.342 701.555 781.204L639.286 781.308L639.179 775.023L639.219 746.654L639.177 704.349L720.692 704.133Z"/>
	<path fill="#171E34" d="M639.219 746.654L714.768 746.633C712.217 756.058 709.196 764.878 705.272 773.837C704.275 776.115 703.197 779.342 701.555 781.204L639.286 781.308L639.179 775.023L639.219 746.654Z"/>
	<path fill="#050302" d="M342.047 553.794L342.492 553.61C343.84 553.037 344.966 552.391 346.187 551.582C348.275 550.198 349.521 549.772 352 549.995C354.278 551.416 356.063 553.184 356.703 555.895C357.598 559.683 356.779 564.287 356.261 568.083C354.877 578.173 355.325 588.756 355.449 598.936L384.499 610.63L384.559 631.094L384.715 652.862C384.755 657.5 385.082 662.334 384.571 666.946L384.488 694.087L384.436 704.925L384.377 746.99L384.296 774.615L384.403 782.014L324.068 782.015C317.635 771.204 312.597 758.991 309.026 746.941C305.087 732.826 302.861 719.034 301.919 704.409C300.694 691.894 302.743 678.44 304.669 666.062L311.905 638.65L315.246 628.859L336.862 628.623C333.874 616.843 332.521 606.102 332.428 593.971C332.29 580.498 336.125 565.804 342.047 553.794Z"/>
	<path fill="#FBE126" d="M384.571 666.946C379.434 661.156 375.724 653.936 372.238 647.064L363.449 629.032L384.559 631.094L384.715 652.862C384.755 657.5 385.082 662.334 384.571 666.946Z"/>
	<path fill="#171E34" d="M336.862 628.623C341.279 642.425 347.763 654.1 355.804 666.071C356.152 668.159 358.272 669.93 359.637 671.57C364.868 677.852 370.3 684.005 377.004 688.767L384.488 694.087L384.436 704.925L301.919 704.409C300.694 691.894 302.743 678.44 304.669 666.062L311.905 638.65L315.246 628.859L336.862 628.623Z"/>
	<path fill="#FBC40F" d="M336.862 628.623C341.279 642.425 347.763 654.1 355.804 666.071L304.669 666.062L311.905 638.65L315.246 628.859L336.862 628.623Z"/>
	<path fill="#FBC40F" d="M301.919 704.409L384.436 704.925L384.377 746.99L384.296 774.615L384.403 782.014L324.068 782.015C317.635 771.204 312.597 758.991 309.026 746.941C305.087 732.826 302.861 719.034 301.919 704.409Z"/>
	<path fill="#171E34" d="M309.026 746.941L384.377 746.99L384.296 774.615L384.403 782.014L324.068 782.015C317.635 771.204 312.597 758.991 309.026 746.941Z"/>
	<path fill="#171E34" d="M383.506 490.803C407.154 511.981 436.513 527.101 467.625 533.746C477.858 536.579 488.494 538.099 499.042 539.108C506.301 539.802 513.769 540.401 521.064 539.886C530.157 539.243 538.911 537.48 547.906 536.407C552.386 535.873 557.146 536.75 561.494 536.043L561.087 535.733L562.5 535.378C576.222 534.945 590.13 536.125 603.875 535.375C600.672 534.454 596.165 535.203 592.767 535.243L574.577 534.998C570.464 535.006 564.465 535.936 560.595 534.808L562.665 534.395L561.25 533.88C562.593 532.45 567.592 531.529 569.53 530.928C575.784 528.99 582.233 527.165 588.241 524.543C605.656 516.942 622.46 506.938 636.644 494.235C641.105 497.621 644.888 501.911 648.678 506.017C656.664 514.669 664.672 524.388 670.998 534.325L671.673 535.372C674.319 538.068 676.206 541.985 677.948 545.312C683.122 555.198 688.006 566.462 689.859 577.543C687.669 576.304 686.395 574.494 684.537 572.857C681.124 569.849 676.793 566.871 672.25 566.013C670.573 565.696 668.238 565.316 666.83 566.251L666.828 568.077L668.553 597.796C659.772 602.739 649.318 607.663 639.211 608.837C638.281 603.858 636.024 598.987 631.804 595.969C629.53 594.343 627.073 593.142 624.25 592.998C618.381 592.698 612.343 593.011 606.461 593.031L574.626 593.044L470.38 593.03L418.268 592.99L405.339 592.952C402.967 592.938 400.315 592.7 397.998 593.18C393.668 594.075 390.181 596.666 387.847 600.422C386.085 603.256 384.661 607.257 384.499 610.63L355.449 598.936C355.325 588.756 354.877 578.173 356.261 568.083C356.779 564.287 357.598 559.683 356.703 555.895C356.063 553.184 354.278 551.416 352 549.995C349.521 549.772 348.275 550.198 346.187 551.582C344.966 552.391 343.84 553.037 342.492 553.61L342.047 553.794C345.043 547.004 348.357 539.943 352.638 533.86C361.91 518.493 371.7 504.353 383.506 490.803Z"/>
	<path fill="#050302" d="M670.998 534.325L671.673 535.372C671.361 535.564 671.085 535.835 670.737 535.948C668.363 536.719 662.712 536.093 660.071 536.075L625.593 535.762L561.494 536.043L561.087 535.733L562.5 535.378C576.222 534.945 590.13 536.125 603.875 535.375C600.672 534.454 596.165 535.203 592.767 535.243L574.577 534.998C570.464 535.006 564.465 535.936 560.595 534.808L562.665 534.395L670.998 534.325Z"/>
	<path fill="#FBC40F" d="M636.644 494.235C641.105 497.621 644.888 501.911 648.678 506.017C656.664 514.669 664.672 524.388 670.998 534.325L562.665 534.395L561.25 533.88C562.593 532.45 567.592 531.529 569.53 530.928C575.784 528.99 582.233 527.165 588.241 524.543C605.656 516.942 622.46 506.938 636.644 494.235Z"/>
	<path fill="#FBC40F" d="M383.506 490.803C407.154 511.981 436.513 527.101 467.625 533.746C466.651 534.477 465.53 534.432 464.356 534.456L429.391 534.064L352.638 533.86C361.91 518.493 371.7 504.353 383.506 490.803Z"/>
	<path fill="#FBC40F" d="M356.261 568.083L592 567.955L646.846 567.946L659.489 567.915C661.782 567.902 664.601 567.578 666.828 568.077L668.553 597.796C659.772 602.739 649.318 607.663 639.211 608.837C638.281 603.858 636.024 598.987 631.804 595.969C629.53 594.343 627.073 593.142 624.25 592.998C618.381 592.698 612.343 593.011 606.461 593.031L574.626 593.044L470.38 593.03L418.268 592.99L405.339 592.952C402.967 592.938 400.315 592.7 397.998 593.18C393.668 594.075 390.181 596.666 387.847 600.422C386.085 603.256 384.661 607.257 384.499 610.63L355.449 598.936C355.325 588.756 354.877 578.173 356.261 568.083Z"/>
</svg>
