<?xml version="1.0" encoding="utf-8" ?>
<svg xmlns="http://www.w3.org/2000/svg" xmlns:xlink="http://www.w3.org/1999/xlink" width="1024" height="1024">
	<path fill="#F0030D" d="M-0 -0L1024 0L1024 1024L-0 1024L0 -0Z"/>
	<path d="M437.04 406.641C446.444 405.807 456.408 406.505 465.862 406.546L522.39 406.753L565.964 406.665C573.116 406.637 580.791 406.046 587.886 406.815L588.463 407.328L512.431 484.413C509.706 482.713 507.233 479.747 504.973 477.443L491.432 463.552C473.184 444.844 454.122 426.409 437.04 406.641Z"/>
	<path d="M520.574 880.525L649.344 880.774L633.73 904.195C613.995 929.101 586.002 949.043 555.304 957.844C543.944 961.101 532.249 962.719 520.537 964.079L520.574 880.525Z"/>
	<path d="M372.328 880.5L503.043 880.492L502.884 963.489C492.187 962.82 481.571 961.5 471.201 958.72C428.215 947.196 394.36 918.739 372.328 880.5Z"/>
	<path d="M417.266 419.784C417.294 419.373 417.321 418.621 417.461 418.247C417.974 416.867 419.789 416.461 421.01 415.921L421.329 553.442L603.321 553.417L603.229 416.562C604.803 416.985 605.74 417.664 607.017 418.658L606.976 639C605.959 639.923 605.505 639.692 604.2 639.75C602.935 637.869 603.522 634.351 603.52 632.052L420.413 632.037C420.416 634.148 420.979 638.541 419.75 640.104L418.068 640.25C417.119 639.101 417.417 638.084 417.386 636.622L417.412 567.696L417.462 460.663L417.482 433.15C417.483 428.878 417.942 423.974 417.266 419.784Z"/>
	<path fill="#FEC707" d="M594.116 580.25L603.341 580.223L603.2 604.378L431.25 604.349L420.964 604.413L421.004 580.614L594.116 580.25Z"/>
	<path d="M419.598 213.118L376.968 213.155L376.942 204.228L419.384 204.532C423.136 180.655 437.844 159.129 457.279 145.074L469.685 137.295L426.268 97.9241C419.343 102.687 412.452 104.914 404 103.327C397.37 102.082 390.962 97.3801 387.211 91.7911C383.253 85.896 381.579 78.1965 383.074 71.2324C384.557 64.3198 388.936 58.2713 394.914 54.5484C401.072 50.7128 408.777 49.1057 415.88 50.9741C422.724 52.7746 429.279 57.6851 432.743 63.8755C436.266 70.1704 437.022 77.5441 434.778 84.3966C434.042 86.643 432.445 88.8585 431.964 91.1125L477.713 133.276C495.961 126.757 516.061 124.635 534.981 129.702C537.945 130.496 540.701 131.448 543.554 132.6C544.085 132.814 546.165 133.9 546.651 133.867C547.344 133.82 587.52 94.564 593.349 90.1547C590.076 83.5633 588.063 76.8103 590.352 69.5L590.629 68.5929C592.649 62.2311 597.371 56.5907 603.326 53.5521C610.214 50.0374 618.101 49.5175 625.391 52.0846C632.396 54.5519 637.706 59.5412 640.819 66.2607C643.693 72.4645 643.931 79.2467 641.478 85.662C638.86 92.5105 634.052 98.3622 627.251 101.32C620.91 104.077 613.591 104.339 607.17 101.689C603.883 100.334 600.98 98.3101 598.188 96.1379L555.249 137.393C562.508 141.849 569.842 146.613 576.108 152.412C589.031 164.37 599.409 181.817 603.513 199L604.62 204.343L646.193 203.999L646.098 213.024L604.459 213.093L419.598 213.118Z"/>
	<path d="M386.062 663.544L592.421 663.388L626.657 663.472C629.926 663.474 636.706 662.666 639.476 663.938L654.829 690.726C662.708 710.272 670.094 730.853 671.792 752.036L351.247 752.08C354.109 730.912 360.543 710.535 369.172 691.028L386.062 663.544Z"/>
	<path fill="#FEC707" d="M419.598 213.118L604.459 213.093L604.513 301.887C604.5 310.106 604.217 318.11 602.565 326.188C599.36 341.849 590.943 357.001 579.604 368.204C568.705 378.974 553.736 386.586 538.66 389.472C526.704 391.761 514.377 391.567 502.25 391.406C478.617 391.093 457.333 382.382 440.925 365.253C429.548 353.376 422.246 336.663 420.136 320.421C419.276 313.798 419.521 307.062 419.519 300.396L419.541 271.124L419.598 213.118Z"/>
	<path d="M485.417 323.75C488.706 323.287 493.305 325.812 496.514 326.776C509.588 330.703 521.694 328.571 534.304 324.441C536.033 323.875 537.773 323.013 539.458 324.105C540.503 324.784 541.533 326.522 541.5 327.75C541.455 329.466 540.244 330.009 539.058 331.004C533.597 333.292 528.041 335.005 522.168 335.853C512.03 337.317 502.706 336.421 492.859 333.796C489.603 332.927 486.191 332.097 483.446 330.062C482.793 328.741 482.449 327.982 482.914 326.5C483.379 325.015 484.189 324.531 485.417 323.75Z"/>
	<path d="M467.579 237.143C472.878 236.733 478.257 237.613 482.853 240.418C488.382 243.792 492.881 249.336 494.25 255.745C495.536 261.767 494.493 268.825 491.212 274.044C487.188 280.446 481.605 283.409 474.356 285.086C468.388 285.792 462.449 285.034 457.339 281.659C451.881 278.053 447.658 272.284 446.511 265.781C445.302 258.924 446.718 252.536 450.767 246.847C454.839 241.126 460.79 238.306 467.579 237.143Z"/>
	<path d="M549.996 237.127C555.691 236.575 561.198 237.407 566.154 240.435C571.995 244.004 576.198 249.514 577.819 256.182C579.341 262.441 577.78 268.879 574.421 274.28C570.562 280.485 565.293 283.409 558.328 284.971C555.456 285.359 552.759 285.367 549.879 285.021C543.828 284.294 538.268 281.053 534.581 276.203C530.669 271.057 528.438 264.865 529.277 258.36L529.401 257.5C529.879 254.067 531.064 251.094 532.89 248.171C536.846 241.84 542.95 238.7 549.996 237.127Z"/>
	<path d="M639.868 442.28C662.03 456.803 682.833 474.288 700.306 494.25C733.575 532.256 757.389 581.773 767.582 631.092C770.662 645.996 772.868 661.447 773.525 676.657L773.998 719.962L774.033 785.919L755.753 785.972C764.083 792.423 771.473 801.381 778.835 808.956L819.657 850.756C816.032 853.297 813.072 856.382 810.127 859.663L737.525 785.921L722.212 785.922L722.517 719.351C706.177 715.028 690.219 709.358 675.101 701.768L655.343 690.979L654.829 690.726L639.476 663.938C640.475 661.418 640.135 657.596 640.133 654.889L640.075 638.011L639.913 550.651L639.762 525.428C639.725 520.311 639.394 515.047 640.052 509.965C638.679 507.661 639.821 449.382 639.868 442.28Z"/>
	<path fill="#FEC707" d="M639.476 663.938C640.475 661.418 640.135 657.596 640.133 654.889L640.075 638.011L639.913 550.651L639.762 525.428C639.725 520.311 639.394 515.047 640.052 509.965C686.554 548.834 715.889 607.489 721.304 667.734L722.517 719.351C706.177 715.028 690.219 709.358 675.101 701.768L655.343 690.979L654.829 690.726L639.476 663.938Z"/>
	<path d="M385.444 441.094C386.076 446.277 385.757 451.744 385.772 456.976L385.759 484.948C385.709 491.644 386.379 499.369 385.47 505.962C386.624 520.284 385.706 535.233 385.654 549.63L385.55 628.971L385.617 651.75C385.636 655.4 385.237 660.008 386.062 663.544L369.172 691.028L343.07 703.438C329.206 709.688 314.961 714.273 300.257 718.058L300.246 784.375L290.349 784.801C289.795 784.802 287.428 784.571 287.044 784.751C286.357 785.074 284.788 787.102 284.191 787.721L273.171 799.048L212.886 859.816C209.825 855.946 206.54 852.169 202.881 848.849C209.751 842.836 216.097 836.144 222.562 829.698L254.615 797.618L264.86 787.394C265.497 786.76 267.294 785.374 267.44 784.522L249.976 784.847L249.95 723.52L250.287 676.797C251.184 659.189 253.729 641.39 257.292 624.136C272.758 549.227 321.91 482.79 385.444 441.094Z"/>
	<path fill="#FEC707" d="M385.47 505.962C386.624 520.284 385.706 535.233 385.654 549.63L385.55 628.971L385.617 651.75C385.636 655.4 385.237 660.008 386.062 663.544L369.172 691.028L343.07 703.438C329.206 709.688 314.961 714.273 300.257 718.058C299.039 691.778 300.713 664.161 306.249 638.46C315.597 595.06 336.223 555.455 366.883 523.373C372.539 517.455 378.56 510.431 385.47 505.962Z"/>
	<path d="M351.247 752.08L671.792 752.036L673.585 778.257C673.758 782.778 674.149 787.479 673.619 791.98C672.588 807.944 670.751 824.058 666.382 839.498C662.343 853.653 656.47 867.901 649.344 880.774L520.574 880.525L520.864 839.152L503.123 839.185L503.043 880.492L372.328 880.5C365.128 867.7 360.205 853.214 355.891 839.205C351.164 824.024 349.764 808.064 348.997 792.27L351.247 752.08Z"/>
	<path fill="#8AA118" d="M520.864 839.152L666.382 839.498C662.343 853.653 656.47 867.901 649.344 880.774L520.574 880.525L520.864 839.152Z"/>
	<path fill="#8AA118" d="M355.891 839.205L503.123 839.185L503.043 880.492L372.328 880.5C365.128 867.7 360.205 853.214 355.891 839.205Z"/>
	<path fill="#8AA118" d="M351.247 752.08L671.792 752.036L673.585 778.257C673.758 782.778 674.149 787.479 673.619 791.98L348.997 792.27L351.247 752.08Z"/>
	<path fill="#FEC707" d="M249.95 723.52L118.252 723.168C120.659 710.094 124.214 697.609 128.782 685.119C134.387 669.795 142.181 655.042 150.84 641.229C172.054 607.389 200.188 578.014 234.003 556.557C251.581 545.402 269.959 537.124 288.79 528.407C279.301 526.203 269.69 522.326 260.786 518.43C233.588 506.528 209.348 490.016 188.316 469.065C154.05 434.932 130.406 391.112 122.371 343.251C120.173 330.164 119.553 317.083 119.516 303.841L188.421 305.745C262.351 313.475 328.647 347.194 381.318 399.097C390.039 407.692 398.748 416.438 406.46 425.963C399.781 431.34 391.809 435.415 385.444 441.094C321.91 482.79 272.758 549.227 257.292 624.136C253.729 641.39 251.184 659.189 250.287 676.797L249.95 723.52Z"/>
	<path fill="#FEC707" d="M618.479 426.763C669.731 361.824 745.184 315.343 827.921 305.715L904.737 303.979C904.438 315.021 904.007 326.064 902.326 337C894.273 389.401 869.175 439.307 830.528 475.811C810.998 494.257 788.056 510.106 763 520.008L734.062 530.153C771.639 539.789 804.613 562.413 831.878 589.552C847.583 605.184 861.687 622.549 872.983 641.648C883.701 659.773 893.076 679.288 899.095 699.5C901.355 707.092 903.466 715.309 904.218 723.211L773.998 719.962L773.525 676.657C772.868 661.447 770.662 645.996 767.582 631.092C757.389 581.773 733.575 532.256 700.306 494.25C682.833 474.288 662.03 456.803 639.868 442.28L618.479 426.763Z"/>
</svg>
